<svg xmlns="http://www.w3.org/2000/svg" viewBox="0 0 80 80"><title>wlm-icon-upload-black</title><path d="M63.1,31.09a9.1,9.1,0,0,1,.91,0,10.22,10.22,0,1,1,0,20.43" fill="none" stroke="#1d1d1b" stroke-linecap="round" stroke-linejoin="round" stroke-width="3"/><line x1="50.41" y1="51.48" x2="64.01" y2="51.48" fill="none" stroke="#1d1d1b" stroke-linecap="round" stroke-linejoin="round" stroke-width="3"/><path d="M30.76,24.34a15.3,15.3,0,1,0-9.68,27.14h8.38" fill="none" stroke="#1d1d1b" stroke-linecap="round" stroke-linejoin="round" stroke-width="3"/><path d="M25.86,21.65a19.94,19.94,0,0,1,37.25,9.9,19.71,19.71,0,0,1-.73,5.36" fill="none" stroke="#1d1d1b" stroke-linecap="round" stroke-linejoin="round" stroke-width="3"/><polygon points="47.91 68.39 47.91 59.8 56.48 59.8 39.94 37.12 23.4 59.8 31.96 59.8 31.96 68.39 47.91 68.39" fill="none" stroke="#1d1d1b" stroke-linecap="round" stroke-linejoin="round" stroke-width="3"/></svg>